#!OML:ASF H:\Pregnant\Project 1\Capture day 1\Session 1\femalepreg.ASF
:FULLY-SPECIFIED
:DEGREES
305
root 7.16579 8.2824 20.6039 -116.966 5.10772 -177.828
lowerback -4.84856 2.59487 6.60981
upperback -4.77973 3.8156 2.64296
thorax -2.01684 1.99454 -0.849421
lowerneck -31.6567 11.1437 6.99995
upperneck -4.90986 15.667 -14.2906
head 4.84152 7.93711 -3.51651
rclavicle -1.27222e-014 -1.98785e-014
rhumerus 20.3619 23.1037 -75.1844
rradius 76.2696
rwrist -33.1994
rhand -19.3309 -40.47
rfingers 7.12502
rthumb 6.98576 -70.3348
lclavicle -1.27222e-014 -1.98785e-014
lhumerus -3.98841 -26.5917 87.4125
lradius 77.8053
lwrist 103.648
lhand -36.1913 -43.394
lfingers 7.12502
lthumb -9.29444 -13.6188
rfemur -160.746 -7.32095 48.6975
rtibia 125.213
rfoot -24.1684 -1.33286
rtoes -3.99254
lfemur -163.591 8.37068 -41.3472
ltibia 129.124
lfoot -22.8455 -4.87418
ltoes -14.242
306
root 7.17031 8.39138 20.6047 -116.763 5.15935 -177.737
lowerback -5.05099 2.63826 6.48467
upperback -4.95307 3.88552 2.58931
thorax -2.08453 2.03558 -0.827384
lowerneck -31.781 11.2493 7.16132
upperneck -5.16737 15.8048 -14.5122
head 4.82009 8.02698 -3.58706
rclavicle 3.4191e-014 1.66979e-014
rhumerus 19.821 22.9401 -75.3428
rradius 76.5028
rwrist -33.2246
rhand -19.1394 -41.1593
rfingers 7.12502
rthumb 7.17057 -71.0178
lclavicle 3.4191e-014 1.66979e-014
lhumerus -4.20973 -26.7581 87.4958
lradius 77.8334
lwrist 102.85
lhand -40.1984 -43.8455
lfingers 7.12502
lthumb -13.159 -14.2807
rfemur -159.768 -7.10034 48.4902
rtibia 124.211
rfoot -24.2054 -1.5988
rtoes -4.18867
lfemur -162.614 8.49855 -41.0792
ltibia 128.099
lfoot -23.1305 -4.65779
ltoes -14.347
307
root 7.17465 8.50191 20.6056 -116.567 5.2229 -177.648
lowerback -5.25792 2.68238 6.34596
upperback -5.12073 3.95662 2.53639
thorax -2.14477 2.07822 -0.796458
lowerneck -31.9193 11.3506 7.31433
upperneck -5.41263 15.9397 -14.7301
head 4.80355 8.11467 -3.65486
rclavicle -4.77083e-015 -6.99722e-014
rhumerus 19.283 22.784 -75.4807
rradius 76.745
rwrist -33.2682
rhand -18.9847 -41.822
rfingers 7.12502
rthumb 7.31987 -71.6754
lclavicle -4.77083e-015 -6.99722e-014
lhumerus -4.4256 -26.9241 87.5876
lradius 77.8854
lwrist 102.114
lhand -44.1598 -44.3516
lfingers 7.12502
lthumb -16.9751 -15.0734
rfemur -158.792 -6.88316 48.2781
rtibia 123.192
rfoot -24.22 -1.8401
rtoes -4.35928
lfemur -161.624 8.62503 -40.8181
ltibia 127.058
lfoot -23.4107 -4.42855
ltoes -14.4514
308
root 7.17892 8.61412 20.6067 -116.385 5.29261 -177.558
lowerback -5.46056 2.72698 6.19968
upperback -5.28149 4.02913 2.48666
thorax -2.20111 2.12235 -0.757845
lowerneck -32.0632 11.4453 7.45989
upperneck -5.64657 16.0678 -14.9465
head 4.79054 8.1981 -3.7216
rclavicle -3.10104e-014 -1.74931e-014
rhumerus 18.7443 22.6382 -75.5995
rradius 76.9934
rwrist -33.3425
rhand -18.9508 -42.3521
rfingers 7.12502
rthumb 7.35264 -72.2044
lclavicle -3.10104e-014 -1.74931e-014
lhumerus -4.64118 -27.1001 87.6896
lradius 77.9888
lwrist 101.547
lhand -48.0314 -45.0498
lfingers 7.12502
lthumb -20.6986 -16.1336
rfemur -157.805 -6.67497 48.0658
rtibia 122.155
rfoot -24.2227 -2.0575
rtoes -4.49356
lfemur -160.614 8.75496 -40.5606
ltibia 126.01
lfoot -23.692 -4.18425
ltoes -14.5856
309
root 7.18293 8.72831 20.6081 -116.227 5.36035 -177.475
lowerback -5.64629 2.76682 6.05224
upperback -5.43626 4.09673 2.44083
thorax -2.26158 2.16425 -0.71542
lowerneck -32.2174 11.5286 7.57299
upperneck -5.85911 16.1894 -15.13
head 4.77933 8.27832 -3.7738
rclavicle -4.21423e-014 -5.08889e-014
rhumerus 18.2038 22.4951 -75.707
rradius 77.252
rwrist -33.3986
rhand -18.938 -42.8316
rfingers 7.12502
rthumb 7.365 -72.6834
lclavicle -4.21423e-014 -5.08889e-014
lhumerus -4.87706 -27.2804 87.8139
lradius 78.1442
lwrist 101.125
lhand -51.804 -46.0663
lfingers 7.12502
lthumb -24.3196 -17.5891
rfemur -156.802 -6.49531 47.8616
rtibia 121.104
rfoot -24.2227 -2.22639
rtoes -4.51821
lfemur -159.568 8.87948 -40.2951
ltibia 124.938
lfoot -23.9639 -3.93278
ltoes -14.7149
310
root 7.18701 8.84393 20.6097 -116.084 5.43788 -177.391
lowerback -5.82523 2.80786 5.89579
upperback -5.58711 4.16684 2.39416
thorax -2.32239 2.20791 -0.668926
lowerneck -32.3681 11.606 7.67989
upperneck -6.05806 16.3032 -15.3028
head 4.76998 8.35387 -3.82278
rclavicle 3.65764e-014 3.57812e-014
rhumerus 17.6572 22.3575 -75.8071
rradius 77.5113
rwrist -33.4858
rhand -19.0407 -43.1421
rfingers 7.12502
rthumb 7.26589 -72.9973
lclavicle 3.65764e-014 3.57812e-014
lhumerus -5.1221 -27.4677 87.9452
lradius 78.33
lwrist 100.799
lhand -55.4571 -47.5412
lfingers 7.12502
lthumb -27.8173 -19.5802
rfemur -155.781 -6.31983 47.6538
rtibia 120.031
rfoot -24.2168 -2.37806
rtoes -4.51869
lfemur -158.505 9.0128 -40.0338
ltibia 123.846
lfoot -24.2257 -3.68082
ltoes -14.8561
311
root 7.19128 8.96068 20.6116 -115.95 5.52979 -177.3
lowerback -6.00478 2.85231 5.72774
upperback -5.73348 4.24186 2.34547
thorax -2.37881 2.25475 -0.617528
lowerneck -32.5223 11.6762 7.7776
upperneck -6.23802 16.4083 -15.4609
head 4.7642 8.42374 -3.86676
rclavicle 2.38542e-015 -4.77083e-014
rhumerus 17.1072 22.2211 -75.9032
rradius 77.7666
rwrist -33.6034
rhand -19.1416 -43.4347
rfingers 7.12502
rthumb 7.16843 -73.2933
lclavicle 2.38542e-015 -4.77083e-014
lhumerus -5.36649 -27.6611 88.0739
lradius 78.5371
lwrist 100.554
lhand -58.9788 -49.7434
lfingers 7.12502
lthumb -31.1792 -22.3762
rfemur -154.742 -6.13657 47.4402
rtibia 118.933
rfoot -24.1989 -2.52568
rtoes -4.54286
lfemur -157.436 9.16296 -39.7818
ltibia 122.738
lfoot -24.476 -3.43972
ltoes -14.9835
312
root 7.19579 9.07871 20.6136 -115.829 5.63624 -177.197
lowerback -6.17907 2.89934 5.54903
upperback -5.87588 4.32123 2.29681
thorax -2.43485 2.3044 -0.560044
lowerneck -32.6749 11.746 7.87685
upperneck -6.39849 16.5098 -15.6135
head 4.7639 8.48948 -3.90928
rclavicle -6.99722e-014 -7.79236e-014
rhumerus 16.5523 22.1226 -75.9871
rradius 78.0077
rwrist -33.8642
rhand -19.4316 -43.4696
rfingers 7.12502
rthumb 6.88855 -73.3375
lclavicle -6.99722e-014 -7.79236e-014
lhumerus -5.61096 -27.838 88.2011
lradius 78.7106
lwrist 100.212
lhand -62.1119 -52.5536
lfingers 7.12502
lthumb -34.16 -25.8055
rfemur -153.679 -5.94017 47.2224
rtibia 117.809
rfoot -24.1673 -2.67531
rtoes -4.6048
lfemur -156.362 9.33841 -39.5391
ltibia 121.613
lfoot -24.7145 -3.21764
ltoes -15.0775
313
root 7.20031 9.19809 20.6158 -115.723 5.7434 -177.085
lowerback -6.34676 2.94622 5.37524
upperback -6.01053 4.40028 2.24934
thorax -2.4867 2.35399 -0.504021
lowerneck -32.8291 11.8186 7.98322
upperneck -6.54353 16.6105 -15.7667
head 4.76948 8.55245 -3.95253
rclavicle -1.51076e-014 -1.90833e-014
rhumerus 16.0067 22.0547 -76.0599
rradius 78.2254
rwrist -34.2317
rhand -19.8657 -43.2897
rfingers 7.12502
rthumb 6.46951 -73.1709
lclavicle -1.51076e-014 -1.90833e-014
lhumerus -5.84704 -27.9886 88.319
lradius 78.8412
lwrist 99.7144
lhand -64.7367 -56.0428
lfingers 7.12502
lthumb -36.6485 -29.8882
rfemur -152.589 -5.74182 47.0149
rtibia 116.658
rfoot -24.1279 -2.8254
rtoes -4.69252
lfemur -155.277 9.53017 -39.2885
ltibia 120.472
lfoot -24.9366 -3.01329
ltoes -15.1313
314
root 7.20463 9.31907 20.6183 -115.641 5.84115 -176.967
lowerback -6.49796 2.98979 5.21676
upperback -6.13702 4.47491 2.2049
thorax -2.53908 2.40089 -0.454146
lowerneck -32.9772 11.8943 8.09892
upperneck -6.67618 16.7098 -15.9238
head 4.77965 8.6123 -3.99825
rclavicle -1.74931e-014 -1.90833e-014
rhumerus 15.4668 22.0166 -76.1253
rradius 78.4277
rwrist -34.681
rhand -20.4163 -42.9746
rfingers 7.12502
rthumb 5.93794 -72.8714
lclavicle -1.74931e-014 -1.90833e-014
lhumerus -6.0861 -28.128 88.4341
lradius 78.9619
lwrist 99.2125
lhand -66.6813 -60.2818
lfingers 7.12502
lthumb -38.4862 -34.6166
rfemur -151.471 -5.55548 46.8272
rtibia 115.482
rfoot -24.0769 -2.97767
rtoes -4.85127
lfemur -154.168 9.72982 -39.0204
ltibia 119.313
lfoot -25.14 -2.82363
ltoes -15.1511
315
root 7.20865 9.44196 20.6212 -115.589 5.92227 -176.849
lowerback -6.626 3.02778 5.08031
upperback -6.25484 4.54183 2.16357
thorax -2.59473 2.44295 -0.414644
lowerneck -33.1246 11.9749 8.22618
upperneck -6.79258 16.809 -16.0839
head 4.79646 8.66917 -4.04598
rclavicle -6.52014e-014 -3.26007e-014
rhumerus 14.9292 21.9989 -76.1905
rradius 78.6236
rwrist -35.1597
rhand -21.0188 -42.6138
rfingers 7.12502
rthumb 5.35616 -72.5261
lclavicle -6.52014e-014 -3.26007e-014
lhumerus -6.32782 -28.2537 88.5465
lradius 79.065
lwrist 98.6712
lhand -67.9449 -64.1868
lfingers 7.12502
lthumb -39.6773 -38.8642
rfemur -150.321 -5.39601 46.6609
rtibia 114.285
rfoot -24.0217 -3.10239
rtoes -4.97077
lfemur -153.025 9.92857 -38.7276
ltibia 118.131
lfoot -25.3251 -2.64113
ltoes -15.1502
316
root 7.21217 9.56674 20.6244 -115.569 5.98399 -176.737
lowerback -6.72992 3.05951 4.96818
upperback -6.36357 4.59959 2.12338
thorax -2.65337 2.47914 -0.389008
lowerneck -33.2725 12.0575 8.35793
upperneck -6.89031 16.9062 -16.2388
head 4.8191 8.72241 -4.09242
rclavicle -1.03368e-014 -2.62396e-014
rhumerus 14.3899 21.9782 -76.2644
rradius 78.8197
rwrist -35.5908
rhand -21.5653 -42.3508
rfingers 7.12502
rthumb 4.82855 -72.2758
lclavicle -1.03368e-014 -2.62396e-014
lhumerus -6.569 -28.3678 88.6543
lradius 79.1549
lwrist 98.1119
lhand -68.6341 -66.6905
lfingers 7.12502
lthumb -40.3259 -41.5635
rfemur -149.143 -5.27459 46.5162
rtibia 113.07
rfoot -23.9636 -3.19751
rtoes -5.06727
lfemur -151.838 10.115 -38.4085
ltibia 116.924
lfoot -25.4909 -2.45444
ltoes -15.1684
317
root 7.21535 9.69346 20.6277 -115.587 6.03184 -176.635
lowerback -6.80509 3.08418 4.87185
upperback -6.46303 4.64724 2.08392
thorax -2.71774 2.50898 -0.373362
lowerneck -33.4186 12.1422 8.49142
upperneck -6.96964 17.0021 -16.3862
head 4.84682 8.77257 -4.13646
rclavicle 6.36111e-014 1.13705e-013
rhumerus 13.8485 21.9465 -76.3498
rradius 79.016
rwrist -35.9289
rhand -21.9867 -42.2532
rfingers 7.12502
rthumb 4.42163 -72.187
lclavicle 6.36111e-014 1.13705e-013
lhumerus -6.81359 -28.4641 88.7606
lradius 79.2339
lwrist 97.5347
lhand -68.9326 -67.0973
lfingers 7.12502
lthumb -40.6065 -42.0571
rfemur -147.933 -5.19264 46.3835
rtibia 111.838
rfoot -23.9005 -3.26008
rtoes -5.12434
lfemur -150.596 10.2918 -38.0695
ltibia 115.692
lfoot -25.6467 -2.26291
ltoes -15.1994
318
root 7.21828 9.82133 20.6312 -115.629 6.06991 -176.536
lowerback -6.86703 3.10578 4.78787
upperback -6.55693 4.69025 2.04554
thorax -2.78319 2.53583 -0.364306
lowerneck -33.5607 12.2247 8.61839
upperneck -7.03008 17.0939 -16.52
head 4.87788 8.81875 -4.17561
rclavicle 6.2816e-014 7.63333e-014
rhumerus 13.2987 21.8945 -76.4478
rradius 79.2137
rwrist -36.1542
rhand -22.251 -42.3552
rfingers 7.12502
rthumb 4.16638 -72.2942
lclavicle 6.2816e-014 7.63333e-014
lhumerus -7.06547 -28.5484 88.8676
lradius 79.3115
lwrist 96.9675
lhand -68.9837 -65.6541
lfingers 7.12502
lthumb -40.6546 -40.6289
rfemur -146.702 -5.13399 46.2589
rtibia 110.59
rfoot -23.8297 -3.29829
rtoes -5.15918
lfemur -149.324 10.4602 -37.7184
ltibia 114.441
lfoot -25.7862 -2.06145
ltoes -15.2749
